<?xml version="1.0" standalone="no"?>
<svg  viewBox="0 0 1024 1024" fill="currentColor"  version="1.1" xmlns="http://www.w3.org/2000/svg" xmlns:xlink="http://www.w3.org/1999/xlink" width="200" height="200">
    <defs><style type="text/css"></style></defs>
    <path d="M224.992 448c123.712 0 224 100.288 224 224s-100.288 224-224 224-224-100.288-224-224l-0.992-32c0-247.424 200.576-448 448-448l0 128c-85.472 0-165.824 33.28-226.272 93.728-11.648 11.648-22.24 24.032-31.84 37.024 11.424-1.792 23.168-2.752 35.104-2.752zM800.992 448c123.712 0 224 100.288 224 224s-100.288 224-224 224-224-100.288-224-224l-0.992-32c0-247.424 200.576-448 448-448l0 128c-85.472 0-165.824 33.28-226.272 93.728-11.648 11.648-22.24 24.032-31.84 37.024 11.456-1.792 23.168-2.752 35.104-2.752z" p-id="546"></path>
</svg>