<?xml version="1.0" standalone="no"?>
<svg  viewBox="0 0 1024 1024" fill="currentColor"  version="1.1" xmlns="http://www.w3.org/2000/svg" xmlns:xlink="http://www.w3.org/1999/xlink" width="200" height="200">
    <defs><style type="text/css"></style></defs>
    <path d="M280.3 181.3h708.8v93.09H280.3zM173.05 297.67H36.41c-0.83 0-1.5-0.67-1.5-1.5V159.53c0-0.83 0.67-1.5 1.5-1.5h136.64c0.83 0 1.5 0.67 1.5 1.5v136.64c0 0.83-0.68 1.5-1.5 1.5zM280.3 478.78h708.8v93.09H280.3zM173.05 595.14H36.41c-0.83 0-1.5-0.67-1.5-1.5V457.01c0-0.83 0.67-1.5 1.5-1.5h136.64c0.83 0 1.5 0.67 1.5 1.5v136.64c0 0.82-0.68 1.49-1.5 1.49z" p-id="1160"></path><path d="M280.3 776.26h708.8v93.09H280.3zM173.05 892.62H36.41c-0.83 0-1.5-0.67-1.5-1.5V754.48c0-0.83 0.67-1.5 1.5-1.5h136.64c0.83 0 1.5 0.67 1.5 1.5v136.64c0 0.83-0.68 1.5-1.5 1.5z" p-id="1161"></path>
</svg>