<?xml version="1.0" encoding="UTF-8"?>
<svg width="24px" height="24px" viewBox="0 0 24 24" version="1.1" xmlns="http://www.w3.org/2000/svg" xmlns:xlink="http://www.w3.org/1999/xlink">
    <!-- Generator: Sketch 55.1 (78136) - https://sketchapp.com -->
    <title>Icon / 标签 / 45% 000备份</title>
    <desc>Created with Sketch.</desc>
    <defs>
      <style type="text/css"></style>
    </defs>
    <path d="M20.469,11.622 L12.369,3.522 C12.045,3.198 11.595,3 11.1,3 L4.8,3 C3.81,3 3,3.81 3,4.8 L3,11.1 C3,11.595 3.198,12.045 3.531,12.378 L11.631,20.478 C11.955,20.802 12.405,21 12.9,21 C13.395,21 13.845,20.802 14.169,20.469 L20.469,14.169 C20.802,13.845 21,13.395 21,12.9 C21,12.405 20.793,11.946 20.469,11.622 L20.469,11.622 Z M6.5,8 C5.67,8 5,7.33 5,6.5 C5,5.67 5.67,5 6.5,5 C7.33,5 8,5.67 8,6.5 C8,7.33 7.33,8 6.5,8 L6.5,8 Z" id="path-1"></path>
</svg>
