<?xml version="1.0" encoding="UTF-8"?>
<svg width="24px" height="24px" viewBox="0 0 24 24" version="1.1" xmlns="http://www.w3.org/2000/svg" xmlns:xlink="http://www.w3.org/1999/xlink">
    <!-- Generator: Sketch 55.1 (78136) - https://sketchapp.com -->
    <title>Icon / 待办 / 45% 000</title>
    <desc>Created with Sketch.</desc>
    <defs>
      <style type="text/css"></style>
    </defs>
    <path d="M19,3 L14.82,3 C14.4,1.84 13.3,1 12,1 C10.7,1 9.6,1.84 9.18,3 L5,3 C3.9,3 3,3.9 3,5 L3,21 C3,22.1 3.9,23 5,23 L19,23 C20.1,23 21,22.1 21,21 L21,5 C21,3.9 20.1,3 19,3 L19,3 Z M12,3 C12.55,3 13,3.45 13,4 C13,4.55 12.55,5 12,5 C11.45,5 11,4.55 11,4 C11,3.45 11.45,3 12,3 L12,3 Z M19,21 L5,21 L5,5 L7,5 L7,8 L17,8 L17,5 L19,5 L19,21 Z M7,11 L7,13 L9,13 L9,11 L7,11 Z M7,15 L7,17 L9,17 L9,15 L7,15 Z M10,11 L10,13 L17,13 L17,11 L10,11 Z M10,15 L10,17 L17,17 L17,15 L10,15 Z" id="path-1"></path>
</svg>
