<?xml version="1.0" standalone="no"?><!DOCTYPE svg PUBLIC "-//W3C//DTD SVG 1.1//EN" "http://www.w3.org/Graphics/SVG/1.1/DTD/svg11.dtd"><svg t="1536128798182" class="icon" style="" viewBox="0 0 1024 1024" version="1.1" xmlns="http://www.w3.org/2000/svg" p-id="674" xmlns:xlink="http://www.w3.org/1999/xlink" width="200" height="200"><defs><style type="text/css"></style></defs><path d="M384 64l640 0 0 128-640 0 0-128zM384 448l640 0 0 128-640 0 0-128zM384 832l640 0 0 128-640 0 0-128zM0 128c0-70.688 57.312-128 128-128s128 57.312 128 128c0 70.688-57.312 128-128 128s-128-57.312-128-128zM0 512c0-70.688 57.312-128 128-128s128 57.312 128 128c0 70.688-57.312 128-128 128s-128-57.312-128-128zM0 896c0-70.688 57.312-128 128-128s128 57.312 128 128c0 70.688-57.312 128-128 128s-128-57.312-128-128z" p-id="675"></path></svg>