<?xml version="1.0" encoding="UTF-8"?>
<svg width="24px" height="24px" viewBox="0 0 24 24" version="1.1" xmlns="http://www.w3.org/2000/svg" xmlns:xlink="http://www.w3.org/1999/xlink">
    <!-- Generator: Sketch 55.1 (78136) - https://sketchapp.com -->
    <title>Icon / 安全知识 / 45% 000</title>
    <desc>Created with Sketch.</desc>
    <defs>
      <style type="text/css"></style>
    </defs>
    <path d="M14,12 L20,12 L20,13.5 L14,13.5 L14,12 Z M14,9.5 L18,9.5 L18,11 L14,11 L14,9.5 Z M14,14.5 L20,14.5 L20,16 L14,16 L14,14.5 Z M21,4 L3,4 C1.9,4 1,4.9 1,6 L1,19 C1,20.1 1.9,21 3,21 L21,21 C22.1,21 23,20.1 23,19 L23,6 C23,4.9 22.1,4 21,4 L21,4 Z M21,19 L13,19 L13,6 L21,6 L21,19 L21,19 Z M11,19 L3,19 L3,6 L11,6 L11,19 L11,19 Z" id="path-1"></path>
</svg>
